<svg width="99" height="73" viewBox="0 0 99 73" fill="none" xmlns="http://www.w3.org/2000/svg">
<g clip-path="url(#clip0_326_251)">
<path d="M55.1822 21.0826C55.1781 19.7566 54.7113 18.4735 53.8622 17.4549C53.013 16.4364 51.8349 15.7462 50.5312 15.5036V13.2658H55.11C55.2636 13.2686 55.4159 13.237 55.5558 13.1734C55.6956 13.1098 55.8195 13.0158 55.9183 12.8981C56.0172 12.7805 56.0885 12.6423 56.127 12.4936C56.1656 12.3449 56.1705 12.1894 56.1412 12.0386L54.0787 1.64359C54.0327 1.40525 53.904 1.1908 53.7153 1.03801C53.5267 0.885213 53.2902 0.803862 53.0475 0.808276H45.8287C45.586 0.803862 45.3495 0.885213 45.1609 1.03801C44.9723 1.1908 44.8436 1.40525 44.7975 1.64359L42.735 12.0386C42.7058 12.1894 42.7106 12.3449 42.7492 12.4936C42.7878 12.6423 42.8591 12.7805 42.9579 12.8981C43.0568 13.0158 43.1806 13.1098 43.3205 13.1734C43.4603 13.237 43.6126 13.2686 43.7662 13.2658H48.4688V15.5036C47.4066 15.6996 46.4223 16.1943 45.6313 16.9297C44.8402 17.6651 44.2751 18.6107 44.0022 19.6557C43.7293 20.7007 43.7599 21.8019 44.0904 22.8302C44.4209 23.8584 45.0376 24.7712 45.8683 25.4615C46.699 26.1519 47.7092 26.5911 48.7806 26.7279C49.852 26.8646 50.9402 26.6932 51.9176 26.2336C52.8951 25.7741 53.7213 25.0455 54.2995 24.1332C54.8777 23.2209 55.1838 22.1627 55.1822 21.0826ZM46.7569 2.87078H52.2431L53.8622 11.2033H45.1378L46.7569 2.87078ZM49.5 24.7023C48.6294 24.7074 47.7863 24.3975 47.1261 23.8299C46.4659 23.2623 46.0331 22.4752 45.9075 21.6137C45.782 20.7521 45.972 19.8742 46.4427 19.1418C46.9134 18.4093 47.6329 17.8717 48.4688 17.628V21.0826C48.4688 21.3562 48.5774 21.6185 48.7708 21.8119C48.9642 22.0053 49.2265 22.1139 49.5 22.1139C49.7735 22.1139 50.0358 22.0053 50.2292 21.8119C50.4226 21.6185 50.5312 21.3562 50.5312 21.0826V17.628C51.3671 17.8717 52.0866 18.4093 52.5573 19.1418C53.028 19.8742 53.218 20.7521 53.0925 21.6137C52.9669 22.4752 52.5341 23.2623 51.8739 23.8299C51.2137 24.3975 50.3706 24.7074 49.5 24.7023ZM41.0953 45.0076V24.063C41.0953 23.7895 40.9867 23.5272 40.7933 23.3338C40.5999 23.1404 40.3376 23.0317 40.0641 23.0317C39.7906 23.0317 39.5283 23.1404 39.3349 23.3338C39.1415 23.5272 39.0328 23.7895 39.0328 24.063V27.5692C37.9002 26.55 36.4314 25.9845 34.9078 25.9811H10.9725C9.44759 25.9776 7.9764 26.544 6.8475 27.5692V24.063C6.8475 23.7895 6.73885 23.5272 6.54545 23.3338C6.35206 23.1404 6.08976 23.0317 5.81625 23.0317C5.54275 23.0317 5.28044 23.1404 5.08705 23.3338C4.89365 23.5272 4.785 23.7895 4.785 24.063V45.0076C3.45314 45.21 2.23796 45.8831 1.36001 46.9048C0.482053 47.9266 -0.000474902 49.2293 3.50731e-07 50.5764V71.2014C3.50731e-07 71.4749 0.10865 71.7372 0.302046 71.9306C0.495443 72.124 0.757746 72.2327 1.03125 72.2327H8.81719C9.05844 72.2375 9.29377 72.1576 9.4822 72.0069C9.67063 71.8561 9.80023 71.6441 9.84844 71.4077L10.7044 67.3548C10.7792 67.0552 10.9536 66.7899 11.1991 66.6025C11.4446 66.4151 11.7465 66.3167 12.0553 66.3236H33.8559C34.1638 66.3204 34.4639 66.4201 34.7087 66.607C34.9534 66.7938 35.1288 67.057 35.2069 67.3548L36.0938 71.3664C36.142 71.6028 36.2716 71.8149 36.46 71.9656C36.6484 72.1164 36.8837 72.1963 37.125 72.1914H44.9109C45.1844 72.1914 45.4467 72.0828 45.6401 71.8894C45.8335 71.696 45.9422 71.4337 45.9422 71.1602V50.5352C45.9327 49.1853 45.4378 47.884 44.5478 46.869C43.6579 45.8541 42.4323 45.1934 41.0953 45.0076ZM2.0625 56.0936H43.8178V59.1255H2.0625V56.0936ZM6.85781 32.1686C6.85781 31.0746 7.29241 30.0254 8.066 29.2518C8.83959 28.4782 9.88879 28.0436 10.9828 28.0436H34.9078C35.4664 28.043 36.0193 28.1558 36.533 28.3752C37.0467 28.5947 37.5104 28.9162 37.8961 29.3202C38.2819 29.7242 38.5815 30.2024 38.7769 30.7257C38.9723 31.249 39.0593 31.8066 39.0328 32.3645V44.9355H36.8053V32.3748C36.8053 31.8278 36.588 31.3032 36.2012 30.9164C35.8144 30.5296 35.2898 30.3123 34.7428 30.3123H11.1375C10.5905 30.3123 10.0659 30.5296 9.67909 30.9164C9.2923 31.3032 9.075 31.8278 9.075 32.3748V44.9355H6.85781V32.1686ZM17.4075 44.028V39.4595C17.4075 39.2216 17.502 38.9934 17.6703 38.8251C17.8385 38.6569 18.0667 38.5623 18.3047 38.5623H27.5859C27.8248 38.5623 28.0541 38.6565 28.224 38.8245C28.3939 38.9924 28.4907 39.2206 28.4934 39.4595V44.028C28.4934 44.2686 28.3978 44.4995 28.2276 44.6697C28.0574 44.8399 27.8266 44.9355 27.5859 44.9355H18.3047C18.186 44.9355 18.0685 44.9119 17.959 44.8662C17.8494 44.8205 17.7501 44.7535 17.6666 44.669C17.5832 44.5846 17.5173 44.4845 17.4728 44.3745C17.4283 44.2644 17.4061 44.1466 17.4075 44.028ZM27.5756 36.4998H18.2944C17.5103 36.5026 16.759 36.8153 16.2046 37.3697C15.6501 37.9242 15.3374 38.6754 15.3347 39.4595C15.3347 44.6158 15.3347 44.3477 15.4791 44.9355H11.1375V32.3748H34.7428V44.9355H30.4012C30.6075 44.2858 30.5456 44.193 30.5456 39.4595C30.5402 38.6745 30.2252 37.9232 29.6691 37.3691C29.113 36.8149 28.3607 36.5025 27.5756 36.4998ZM2.0625 50.5764C2.06522 49.6282 2.44311 48.7196 3.11361 48.0491C3.7841 47.3786 4.69271 47.0007 5.64094 46.998C42.5391 46.998 40.5694 46.998 41.0953 47.1114C41.8724 47.2991 42.5637 47.743 43.0576 48.3717C43.5515 49.0003 43.8193 49.777 43.8178 50.5764V54.0311H2.0625V50.5764ZM43.8178 70.1702H37.9087L37.2178 66.932C37.0529 66.1624 36.6293 65.4725 36.0176 64.9771C35.4059 64.4818 34.643 64.2109 33.8559 64.2095H12.0347C11.252 64.2084 10.4921 64.473 9.87945 64.9601C9.2668 65.4472 8.83773 66.128 8.6625 66.8908L7.98188 70.1289H2.0625V61.1364H43.8178V70.1702ZM94.215 45.0076V24.063C94.215 23.7895 94.1064 23.5272 93.913 23.3338C93.7196 23.1404 93.4573 23.0317 93.1838 23.0317C92.9102 23.0317 92.6479 23.1404 92.4545 23.3338C92.2611 23.5272 92.1525 23.7895 92.1525 24.063V27.5692C91.0236 26.544 89.5524 25.9776 88.0275 25.9811H64.0922C62.5686 25.9845 61.0998 26.55 59.9672 27.5692V24.063C59.9672 23.7895 59.8585 23.5272 59.6651 23.3338C59.4717 23.1404 59.2094 23.0317 58.9359 23.0317C58.6624 23.0317 58.4001 23.1404 58.2067 23.3338C58.0133 23.5272 57.9047 23.7895 57.9047 24.063V45.0076C56.5719 45.208 55.3555 45.8805 54.4772 46.9027C53.5989 47.9249 53.1171 49.2287 53.1197 50.5764V71.2014C53.1197 71.4749 53.2283 71.7372 53.4217 71.9306C53.6151 72.124 53.8774 72.2327 54.1509 72.2327H61.9369C62.1781 72.2375 62.4135 72.1576 62.6019 72.0069C62.7903 71.8561 62.9199 71.6441 62.9681 71.4077L63.8241 67.3548C63.9026 67.0553 64.0795 66.7908 64.3263 66.6038C64.5732 66.4168 64.8757 66.3181 65.1853 66.3236H86.9653C87.2732 66.3204 87.5733 66.4201 87.8181 66.607C88.0628 66.7938 88.2381 67.057 88.3162 67.3548L89.1722 71.4077C89.2204 71.6441 89.35 71.8561 89.5384 72.0069C89.7269 72.1576 89.9622 72.2375 90.2034 72.2327H97.9688C98.2423 72.2327 98.5046 72.124 98.698 71.9306C98.8913 71.7372 99 71.4749 99 71.2014V50.5764C99.0026 49.2287 98.5208 47.9249 97.6425 46.9027C96.7642 45.8805 95.5478 45.208 94.215 45.0076ZM55.1822 56.0936H96.9375V59.1255H55.1822V56.0936ZM64.0922 28.0436H88.0275C89.1215 28.0436 90.1707 28.4782 90.9443 29.2518C91.7179 30.0254 92.1525 31.0746 92.1525 32.1686V44.9355H89.925V32.3748C89.925 31.8278 89.7077 31.3032 89.3209 30.9164C88.9341 30.5296 88.4095 30.3123 87.8625 30.3123H64.2572C63.7102 30.3123 63.1856 30.5296 62.7988 30.9164C62.412 31.3032 62.1947 31.8278 62.1947 32.3748V44.9355H59.9672V32.3748C59.9392 31.816 60.0252 31.2574 60.2199 30.7329C60.4147 30.2083 60.7141 29.7289 61.1 29.3238C61.4858 28.9186 61.9501 28.5962 62.4645 28.3761C62.9789 28.156 63.5327 28.0429 64.0922 28.0436ZM70.5169 44.028V39.4595C70.5196 39.2206 70.6164 38.9924 70.7863 38.8245C70.9562 38.6565 71.1855 38.5623 71.4244 38.5623H80.7056C80.9436 38.5623 81.1718 38.6569 81.34 38.8251C81.5083 38.9934 81.6028 39.2216 81.6028 39.4595V44.028C81.6042 44.1466 81.582 44.2644 81.5375 44.3745C81.493 44.4845 81.4272 44.5846 81.3437 44.669C81.2603 44.7535 81.1609 44.8205 81.0514 44.8662C80.9418 44.9119 80.8243 44.9355 80.7056 44.9355H71.4244C71.1837 44.9355 70.9529 44.8399 70.7827 44.6697C70.6125 44.4995 70.5169 44.2686 70.5169 44.028ZM80.6953 36.4998H71.4141C70.629 36.5025 69.8767 36.8149 69.3206 37.3691C68.7645 37.9232 68.4495 38.6745 68.4441 39.4595C68.4441 44.6158 68.4441 44.3477 68.5884 44.9355H64.2572V32.3748H87.8625V44.9355H83.5312C83.7375 44.2858 83.6756 44.193 83.6756 39.4595C83.6743 39.0695 83.5961 38.6836 83.4456 38.3237C83.2951 37.9639 83.0752 37.6373 82.7984 37.3624C82.5217 37.0876 82.1935 36.87 81.8327 36.722C81.4718 36.574 81.0853 36.4985 80.6953 36.4998ZM55.1822 50.5764C55.1822 50.1047 55.2754 49.6377 55.4565 49.2022C55.6377 48.7667 55.9031 48.3713 56.2376 48.0387C56.572 47.7062 56.969 47.443 57.4055 47.2644C57.842 47.0858 58.3096 46.9952 58.7812 46.998C96.6178 46.998 93.6375 46.998 94.2356 47.1114C95.0071 47.3063 95.6917 47.7528 96.181 48.3804C96.6703 49.0079 96.9365 49.7806 96.9375 50.5764V54.0311H55.1822V50.5764ZM96.9375 70.1289H91.0181L90.3375 66.8908C90.1704 66.1203 89.7448 65.4302 89.1314 64.935C88.518 64.4397 87.7537 64.1692 86.9653 64.1683H65.1544C64.366 64.1692 63.6017 64.4397 62.9883 64.935C62.3749 65.4302 61.9493 66.1203 61.7822 66.8908L61.0913 70.1289H55.1822V61.1364H96.9375V70.1289Z" fill="black" fill-opacity="0.65"/>
</g>
<defs>
<clipPath id="clip0_326_251">
<rect width="99" height="73" fill="white"/>
</clipPath>
</defs>
</svg>
